<?xml version="1.0" encoding="UTF-8" standalone="no"?>
<!DOCTYPE svg PUBLIC "-//W3C//DTD SVG 1.1//EN"
 "http://www.w3.org/Graphics/SVG/1.1/DTD/svg11.dtd">
<!-- Generated by graphviz version 2.47.0 (20210316.0004)
 -->
<!-- Title: dependencies Pages: 1 -->
<svg width="1072pt" height="428pt"
 viewBox="0.00 0.00 1072.00 428.00" xmlns="http://www.w3.org/2000/svg" xmlns:xlink="http://www.w3.org/1999/xlink">
<g id="graph0" class="graph" transform="scale(1 1) rotate(0) translate(4 424)">
<title>dependencies</title>
<polygon fill="white" stroke="transparent" points="-4,4 -4,-424 1068,-424 1068,4 -4,4"/>
<text text-anchor="start" x="511.01" y="-42.4" font-family="Times-12" font-weight="bold" font-size="14.00">Legend</text>
<polygon fill="#ffffb3" stroke="transparent" points="298,-10 298,-30 318,-30 318,-10 298,-10"/>
<text text-anchor="start" x="321.63" y="-15.4" font-family="Times-12" font-size="14.00"> &#160;Declarations</text>
<polygon fill="#8dd3c7" stroke="transparent" points="411,-10 411,-30 431,-30 431,-10 411,-10"/>
<text text-anchor="start" x="434.73" y="-15.4" font-family="Times-12" font-size="14.00"> &#160;Module</text>
<polygon fill="#80b1d3" stroke="transparent" points="497,-10 497,-30 517,-30 517,-10 497,-10"/>
<text text-anchor="start" x="520.78" y="-15.4" font-family="Times-12" font-size="14.00"> &#160;Bootstrap</text>
<polygon fill="#fdb462" stroke="transparent" points="594,-10 594,-30 614,-30 614,-10 594,-10"/>
<text text-anchor="start" x="617.67" y="-15.4" font-family="Times-12" font-size="14.00"> &#160;Providers</text>
<polygon fill="#fb8072" stroke="transparent" points="690,-10 690,-30 710,-30 710,-10 690,-10"/>
<text text-anchor="start" x="713.73" y="-15.4" font-family="Times-12" font-size="14.00"> &#160;Exports</text>
<g id="clust1" class="cluster">
<title>cluster_AppModule</title>
<polygon fill="none" stroke="black" stroke-dasharray="1,5" points="298,-70 298,-412 528,-412 528,-70 298,-70"/>
</g>
<g id="clust3" class="cluster">
<title>cluster_AppModule_imports</title>
<polygon fill="none" stroke="black" points="306,-146 306,-274 508,-274 508,-146 306,-146"/>
</g>
<g id="clust4" class="cluster">
<title>cluster_AppModule_exports</title>
<polygon fill="none" stroke="black" points="386,-352 386,-404 502,-404 502,-352 386,-352"/>
</g>
<g id="clust6" class="cluster">
<title>cluster_AppModule_providers</title>
<polygon fill="none" stroke="black" points="370,-78 370,-130 520,-130 520,-78 370,-78"/>
</g>
<g id="clust7" class="cluster">
<title>cluster_AuthModule</title>
<polygon fill="none" stroke="black" stroke-dasharray="1,5" points="8,-138 8,-206 290,-206 290,-138 8,-138"/>
</g>
<g id="clust12" class="cluster">
<title>cluster_AuthModule_providers</title>
<polygon fill="none" stroke="black" points="16,-146 16,-198 282,-198 282,-146 16,-146"/>
</g>
<g id="clust13" class="cluster">
<title>cluster_LogModule</title>
<polygon fill="none" stroke="black" stroke-dasharray="1,5" points="536,-214 536,-282 788,-282 788,-214 536,-214"/>
</g>
<g id="clust16" class="cluster">
<title>cluster_LogModule_exports</title>
<polygon fill="none" stroke="black" points="680,-222 680,-274 780,-274 780,-222 680,-222"/>
</g>
<g id="clust18" class="cluster">
<title>cluster_LogModule_providers</title>
<polygon fill="none" stroke="black" points="544,-222 544,-274 672,-274 672,-222 544,-222"/>
</g>
<g id="clust19" class="cluster">
<title>cluster_UserModule</title>
<polygon fill="none" stroke="black" stroke-dasharray="1,5" points="796,-214 796,-282 1056,-282 1056,-214 796,-214"/>
</g>
<g id="clust22" class="cluster">
<title>cluster_UserModule_exports</title>
<polygon fill="none" stroke="black" points="944,-222 944,-274 1048,-274 1048,-222 944,-222"/>
</g>
<g id="clust24" class="cluster">
<title>cluster_UserModule_providers</title>
<polygon fill="none" stroke="black" points="804,-222 804,-274 936,-274 936,-222 804,-222"/>
</g>
<!-- AuthModule -->
<g id="node1" class="node">
<title>AuthModule</title>
<polygon fill="#8dd3c7" stroke="black" points="409.55,-266 406.55,-270 385.55,-270 382.55,-266 322.45,-266 322.45,-230 409.55,-230 409.55,-266"/>
<text text-anchor="middle" x="366" y="-243.8" font-family="Times,serif" font-size="14.00">AuthModule</text>
</g>
<!-- AppModule -->
<g id="node4" class="node">
<title>AppModule</title>
<polygon fill="#8dd3c7" stroke="black" points="485.66,-331 482.66,-335 461.66,-335 458.66,-331 402.34,-331 402.34,-295 485.66,-295 485.66,-331"/>
<text text-anchor="middle" x="444" y="-308.8" font-family="Times,serif" font-size="14.00">AppModule</text>
</g>
<!-- AuthModule&#45;&gt;AppModule -->
<g id="edge1" class="edge">
<title>AuthModule&#45;&gt;AppModule</title>
<path fill="none" stroke="black" d="M405.97,-266.11C405.97,-266.11 405.97,-284.99 405.97,-284.99"/>
<polygon fill="black" stroke="black" points="402.47,-284.99 405.97,-294.99 409.47,-284.99 402.47,-284.99"/>
</g>
<!-- LogModule -->
<g id="node2" class="node">
<title>LogModule</title>
<polygon fill="#8dd3c7" stroke="black" points="396.1,-190 393.1,-194 372.1,-194 369.1,-190 313.9,-190 313.9,-154 396.1,-154 396.1,-190"/>
<text text-anchor="middle" x="355" y="-167.8" font-family="Times,serif" font-size="14.00">LogModule</text>
</g>
<!-- LogModule&#45;&gt;AppModule -->
<g id="edge2" class="edge">
<title>LogModule&#45;&gt;AppModule</title>
<path fill="none" stroke="black" d="M318.09,-190.14C318.09,-228.23 318.09,-313 318.09,-313 318.09,-313 392.07,-313 392.07,-313"/>
<polygon fill="black" stroke="black" points="392.07,-316.5 402.07,-313 392.07,-309.5 392.07,-316.5"/>
</g>
<!-- LogService  -->
<g id="node9" class="node">
<title>LogService </title>
<polygon fill="#fb8072" stroke="black" points="772.03,-266 687.97,-266 687.97,-230 772.03,-230 772.03,-266"/>
<text text-anchor="middle" x="730" y="-243.8" font-family="Times,serif" font-size="14.00">LogService </text>
</g>
<!-- LogModule&#45;&gt;LogService  -->
<g id="edge9" class="edge">
<title>LogModule&#45;&gt;LogService </title>
<path fill="none" stroke="black" stroke-dasharray="5,2" d="M346.83,-190.24C346.83,-197.43 346.83,-204 346.83,-204 346.83,-204 730,-204 730,-204 730,-204 730,-219.85 730,-219.85"/>
<polygon fill="black" stroke="black" points="726.5,-219.85 730,-229.85 733.5,-219.85 726.5,-219.85"/>
</g>
<!-- UserModule -->
<g id="node3" class="node">
<title>UserModule</title>
<polygon fill="#8dd3c7" stroke="black" points="499.98,-190 496.98,-194 475.98,-194 472.98,-190 414.02,-190 414.02,-154 499.98,-154 499.98,-190"/>
<text text-anchor="middle" x="457" y="-167.8" font-family="Times,serif" font-size="14.00">UserModule</text>
</g>
<!-- UserModule&#45;&gt;AuthModule -->
<g id="edge6" class="edge">
<title>UserModule&#45;&gt;AuthModule</title>
<path fill="none" stroke="black" d="M413.86,-172C407.43,-172 402.91,-172 402.91,-172 402.91,-172 402.91,-219.99 402.91,-219.99"/>
<polygon fill="black" stroke="black" points="399.41,-219.99 402.91,-229.99 406.41,-219.99 399.41,-219.99"/>
</g>
<!-- UserModule&#45;&gt;AppModule -->
<g id="edge3" class="edge">
<title>UserModule&#45;&gt;AppModule</title>
<path fill="none" stroke="black" d="M449.92,-190.14C449.92,-190.14 449.92,-284.93 449.92,-284.93"/>
<polygon fill="black" stroke="black" points="446.42,-284.92 449.92,-294.93 453.42,-284.93 446.42,-284.92"/>
</g>
<!-- UserService  -->
<g id="node11" class="node">
<title>UserService </title>
<polygon fill="#fb8072" stroke="black" points="1039.9,-266 952.1,-266 952.1,-230 1039.9,-230 1039.9,-266"/>
<text text-anchor="middle" x="996" y="-243.8" font-family="Times,serif" font-size="14.00">UserService </text>
</g>
<!-- UserModule&#45;&gt;UserService  -->
<g id="edge12" class="edge">
<title>UserModule&#45;&gt;UserService </title>
<path fill="none" stroke="black" stroke-dasharray="5,2" d="M500.2,-166C628.1,-166 996,-166 996,-166 996,-166 996,-219.8 996,-219.8"/>
<polygon fill="black" stroke="black" points="992.5,-219.8 996,-229.8 999.5,-219.8 992.5,-219.8"/>
</g>
<!-- PrismaService  -->
<g id="node5" class="node">
<title>PrismaService </title>
<polygon fill="#fb8072" stroke="black" points="494.36,-396 393.64,-396 393.64,-360 494.36,-360 494.36,-396"/>
<text text-anchor="middle" x="444" y="-373.8" font-family="Times,serif" font-size="14.00">PrismaService </text>
</g>
<!-- AppModule&#45;&gt;PrismaService  -->
<g id="edge4" class="edge">
<title>AppModule&#45;&gt;PrismaService </title>
<path fill="none" stroke="black" stroke-dasharray="5,2" d="M444,-331.11C444,-331.11 444,-349.99 444,-349.99"/>
<polygon fill="black" stroke="black" points="440.5,-349.99 444,-359.99 447.5,-349.99 440.5,-349.99"/>
</g>
<!-- PrismaService -->
<g id="node6" class="node">
<title>PrismaService</title>
<ellipse fill="#fdb462" stroke="black" cx="445" cy="-104" rx="66.63" ry="18"/>
<text text-anchor="middle" x="445" y="-99.8" font-family="Times,serif" font-size="14.00">PrismaService</text>
</g>
<!-- PrismaService&#45;&gt;LogModule -->
<g id="edge11" class="edge">
<title>PrismaService&#45;&gt;LogModule</title>
<path fill="none" stroke="black" d="M387.12,-113.17C387.12,-113.17 387.12,-143.79 387.12,-143.79"/>
<polygon fill="black" stroke="black" points="383.62,-143.79 387.12,-153.79 390.62,-143.79 383.62,-143.79"/>
</g>
<!-- PrismaService&#45;&gt;UserModule -->
<g id="edge13" class="edge">
<title>PrismaService&#45;&gt;UserModule</title>
<path fill="none" stroke="black" d="M457,-121.87C457,-121.87 457,-143.54 457,-143.54"/>
<polygon fill="black" stroke="black" points="453.5,-143.54 457,-153.54 460.5,-143.54 453.5,-143.54"/>
</g>
<!-- PrismaService&#45;&gt;AppModule -->
<g id="edge5" class="edge">
<title>PrismaService&#45;&gt;AppModule</title>
<path fill="none" stroke="black" d="M505.9,-111.44C505.9,-148.67 505.9,-313 505.9,-313 505.9,-313 495.97,-313 495.97,-313"/>
<polygon fill="black" stroke="black" points="495.97,-309.5 485.97,-313 495.97,-316.5 495.97,-309.5"/>
</g>
<!-- AuthService -->
<g id="node7" class="node">
<title>AuthService</title>
<ellipse fill="#fdb462" stroke="black" cx="215" cy="-172" rx="59.11" ry="18"/>
<text text-anchor="middle" x="215" y="-167.8" font-family="Times,serif" font-size="14.00">AuthService</text>
</g>
<!-- AuthService&#45;&gt;AuthModule -->
<g id="edge7" class="edge">
<title>AuthService&#45;&gt;AuthModule</title>
<path fill="none" stroke="black" d="M215,-190.03C215,-210.77 215,-242 215,-242 215,-242 312.32,-242 312.32,-242"/>
<polygon fill="black" stroke="black" points="312.32,-245.5 322.32,-242 312.32,-238.5 312.32,-245.5"/>
</g>
<!-- JwtStrategy -->
<g id="node8" class="node">
<title>JwtStrategy</title>
<ellipse fill="#fdb462" stroke="black" cx="81" cy="-172" rx="56.76" ry="18"/>
<text text-anchor="middle" x="81" y="-167.8" font-family="Times,serif" font-size="14.00">JwtStrategy</text>
</g>
<!-- JwtStrategy&#45;&gt;AuthModule -->
<g id="edge8" class="edge">
<title>JwtStrategy&#45;&gt;AuthModule</title>
<path fill="none" stroke="black" d="M81,-190.2C81,-214.36 81,-254 81,-254 81,-254 312.4,-254 312.4,-254"/>
<polygon fill="black" stroke="black" points="312.4,-257.5 322.4,-254 312.4,-250.5 312.4,-257.5"/>
</g>
<!-- LogService -->
<g id="node10" class="node">
<title>LogService</title>
<ellipse fill="#fdb462" stroke="black" cx="608" cy="-248" rx="55.6" ry="18"/>
<text text-anchor="middle" x="608" y="-243.8" font-family="Times,serif" font-size="14.00">LogService</text>
</g>
<!-- LogService&#45;&gt;LogModule -->
<g id="edge10" class="edge">
<title>LogService&#45;&gt;LogModule</title>
<path fill="none" stroke="black" d="M608,-229.97C608,-223.15 608,-217 608,-217 608,-217 371.44,-217 371.44,-217 371.44,-217 371.44,-200.04 371.44,-200.04"/>
<polygon fill="black" stroke="black" points="374.94,-200.04 371.44,-190.04 367.94,-200.04 374.94,-200.04"/>
</g>
<!-- UserService -->
<g id="node12" class="node">
<title>UserService</title>
<ellipse fill="#fdb462" stroke="black" cx="870" cy="-248" rx="58.44" ry="18"/>
<text text-anchor="middle" x="870" y="-243.8" font-family="Times,serif" font-size="14.00">UserService</text>
</g>
<!-- UserService&#45;&gt;UserModule -->
<g id="edge14" class="edge">
<title>UserService&#45;&gt;UserModule</title>
<path fill="none" stroke="black" d="M870,-229.97C870,-209.23 870,-178 870,-178 870,-178 510.03,-178 510.03,-178"/>
<polygon fill="black" stroke="black" points="510.03,-174.5 500.03,-178 510.03,-181.5 510.03,-174.5"/>
</g>
</g>
</svg>
